mtllib crystal.mtl
o Object_4
usemtl Crystal
v 0.019927136725247152 4.27003205341407 -0.18684223436821412
v -0.6898021459739994 3.722258078055347 -0.41953163395066895
v -0.5794611048414708 3.791222895217288 0.3876022931196985
v -0.0437373142052877 3.9966069087286087 0.26821956241042244
v -0.02389094170310102 3.3125163865902323 0.7266229950259913
v -0.0437373142052877 3.9966069087286087 0.26821956241042244
v -0.5794611048414708 3.791222895217288 0.3876022931196985
v -0.8809312409612176 2.9563824320412095 0.5773834919627916
v -0.8809312409612176 2.9563824320412095 0.5773834919627916
v -0.5794611048414708 3.791222895217288 0.3876022931196985
v -0.6898021459739994 3.722258078055347 -0.41953163395066895
v -1.0852763479458645 3.3360314653236856 -0.5438723709056603
v 0.04609291464971932 0.18610659110345296 -0.500233132278936
v 0.5028525779488291 0.32753696009035593 -0.3456587341052
v 0.48820139365204795 0.3945570403182046 0.22151102558251523
v 0.04495656309468643 0.2637653143740408 0.25562873593594304
v 0.9133082123846634 2.7702222328016433 -0.5884852591173058
v 0.6180074194962799 3.4314351924890616 -0.40691718686537115
v 0.5241978033166106 3.6001276697838875 0.3010136177720142
v 0.8106184475852842 2.776827356285139 0.6046711425583453
v -0.02347711810985942 3.226252794903303 -0.8586469962260708
v 0.019927136725247152 4.27003205341407 -0.18684223436821412
v 0.6180074194962799 3.4314351924890616 -0.40691718686537115
v 0.9133082123846634 2.7702222328016433 -0.5884852591173058
v -1.0852763479458645 3.3360314653236856 -0.5438723709056603
v -0.6898021459739994 3.722258078055347 -0.41953163395066895
v 0.019927136725247152 4.27003205341407 -0.18684223436821412
v -0.02347711810985942 3.226252794903303 -0.8586469962260708
v -0.4292573203678103 0.35197260208678927 -0.3579147083951284
v 0.04609291464971932 0.18610659110345296 -0.500233132278936
v 0.04495656309468643 0.2637653143740408 0.25562873593594304
v -0.395280633067955 0.43710472648058385 0.1987956646649991
v 0.8106184475852842 2.776827356285139 0.6046711425583453
v 0.5241978033166106 3.6001276697838875 0.3010136177720142
v -0.0437373142052877 3.9966069087286087 0.26821956241042244
v -0.02389094170310102 3.3125163865902323 0.7266229950259913
v 0.6180074194962799 3.4314351924890616 -0.40691718686537115
v 0.019927136725247152 4.27003205341407 -0.18684223436821412
v 0.5241978033166106 3.6001276697838875 0.3010136177720142
v 0.6203354909195014 0.9775441844029089 0.40465217046255475
v 0.8106184475852842 2.776827356285139 0.6046711425583453
v -0.02389094170310102 3.3125163865902323 0.7266229950259913
v 0.02111317788832423 1.0468383064089153 0.5337177902449639
v -0.6906226219030032 1.1187388452161144 -0.3986179050971259
v -1.0852763479458645 3.3360314653236856 -0.5438723709056603
v -0.02347711810985942 3.226252794903303 -0.8586469962260708
v -0.00511799616184927 0.9611220135327265 -0.6040076836388835
v -0.00511799616184927 0.9611220135327265 -0.6040076836388835
v -0.02347711810985942 3.226252794903303 -0.8586469962260708
v 0.9133082123846634 2.7702222328016433 -0.5884852591173058
v 0.6411364013301863 0.9495961431902256 -0.41208885955165897
v 0.6411364013301863 0.9495961431902256 -0.41208885955165897
v 0.9133082123846634 2.7702222328016433 -0.5884852591173058
v 0.8106184475852842 2.776827356285139 0.6046711425583453
v 0.6203354909195014 0.9775441844029089 0.40465217046255475
v -0.6157331550238041 1.0362594755569603 0.3940060408872341
v -0.8809312409612176 2.9563824320412095 0.5773834919627916
v -1.0852763479458645 3.3360314653236856 -0.5438723709056603
v -0.6906226219030032 1.1187388452161144 -0.3986179050971259
v 0.02111317788832423 1.0468383064089153 0.5337177902449639
v -0.02389094170310102 3.3125163865902323 0.7266229950259913
v -0.8809312409612176 2.9563824320412095 0.5773834919627916
v -0.6157331550238041 1.0362594755569603 0.3940060408872341
v 0.04495656309468643 0.2637653143740408 0.25562873593594304
v 0.02111317788832423 1.0468383064089153 0.5337177902449639
v -0.6157331550238041 1.0362594755569603 0.3940060408872341
v -0.395280633067955 0.43710472648058385 0.1987956646649991
v -0.395280633067955 0.43710472648058385 0.1987956646649991
v -0.6157331550238041 1.0362594755569603 0.3940060408872341
v -0.6906226219030032 1.1187388452161144 -0.3986179050971259
v -0.4292573203678103 0.35197260208678927 -0.3579147083951284
v 0.5028525779488291 0.32753696009035593 -0.3456587341052
v 0.6411364013301863 0.9495961431902256 -0.41208885955165897
v 0.6203354909195014 0.9775441844029089 0.40465217046255475
v 0.48820139365204795 0.3945570403182046 0.22151102558251523
v 0.04609291464971932 0.18610659110345296 -0.500233132278936
v -0.00511799616184927 0.9611220135327265 -0.6040076836388835
v 0.6411364013301863 0.9495961431902256 -0.41208885955165897
v 0.5028525779488291 0.32753696009035593 -0.3456587341052
v -0.4292573203678103 0.35197260208678927 -0.3579147083951284
v -0.6906226219030032 1.1187388452161144 -0.3986179050971259
v -0.00511799616184927 0.9611220135327265 -0.6040076836388835
v 0.04609291464971932 0.18610659110345296 -0.500233132278936
v 0.48820139365204795 0.3945570403182046 0.22151102558251523
v 0.6203354909195014 0.9775441844029089 0.40465217046255475
v 0.02111317788832423 1.0468383064089153 0.5337177902449639
v 0.04495656309468643 0.2637653143740408 0.25562873593594304
v 0.5241978033166106 3.6001276697838875 0.3010136177720142
v 0.019927136725247152 4.27003205341407 -0.18684223436821412
v -0.0437373142052877 3.9966069087286087 0.26821956241042244
vt 0.5 1
vt 0.625 1
vt 0.625 0.75
vt 0.5 0.75
vt 0.575758695602417 0.625
vt 0.625 0.625
vt 0.625 0.5
vt 0.575758695602417 0.5
vt 0.575758695602417 0.5
vt 0.625 0.5
vt 0.625 0.25
vt 0.5757586359977722 0.25
vt 0.5 0.25
vt 0.625 0.25
vt 0.625 0
vt 0.5 0
vt 0.3257586359977722 0.5
vt 0.375 0.5
vt 0.375 0.25
vt 0.3257586658000946 0.25
vt 0.8257586359977722 0.375
vt 0.875 0.375
vt 0.875 0.25
vt 0.8257586359977722 0.2500000596046448
vt 0.8257586359977722 0.5000000298023224
vt 0.875 0.5
vt 0.875 0.375
vt 0.8257586359977722 0.375
vt 0.375 0.25
vt 0.5 0.25
vt 0.5 0
vt 0.375 0
vt 0.5757586359977722 0.7500000149011612
vt 0.625 0.75
vt 0.625 0.625
vt 0.575758695602417 0.625
vt 0.375 1
vt 0.5 1
vt 0.3749999701976776 0.7500000149011612
vt 0.43117010593414307 0.75
vt 0.5757586359977722 0.7500000149011612
vt 0.575758695602417 0.625
vt 0.43117010593414307 0.6250000298023224
vt 0.6811701059341431 0.5
vt 0.8257586359977722 0.5000000298023224
vt 0.8257586359977722 0.375
vt 0.6811702251434326 0.37499988079071045
vt 0.6811702251434326 0.37499988079071045
vt 0.8257586359977722 0.375
vt 0.8257586359977722 0.2500000596046448
vt 0.6811701059341431 0.25
vt 0.18117010593414307 0.5
vt 0.3257586359977722 0.5
vt 0.3257586658000946 0.25
vt 0.18117009103298187 0.2500000596046448
vt 0.43117013573646545 0.5
vt 0.575758695602417 0.5
vt 0.5757586359977722 0.25
vt 0.43117013573646545 0.25
vt 0.43117010593414307 0.6250000298023224
vt 0.575758695602417 0.625
vt 0.575758695602417 0.5
vt 0.43117013573646545 0.5
vt 0.375 0.625
vt 0.43117010593414307 0.6250000298023224
vt 0.43117013573646545 0.5
vt 0.375 0.5
vt 0.375 0.5
vt 0.43117013573646545 0.5
vt 0.43117013573646545 0.25
vt 0.375 0.25
vt 0.125 0.5
vt 0.18117010593414307 0.5
vt 0.18117009103298187 0.2500000596046448
vt 0.125 0.25
vt 0.625 0.375
vt 0.6811702251434326 0.37499988079071045
vt 0.6811701059341431 0.25
vt 0.625 0.25
vt 0.625 0.5
vt 0.6811701059341431 0.5
vt 0.6811702251434326 0.37499988079071045
vt 0.625 0.375
vt 0.375 0.75
vt 0.43117010593414307 0.75
vt 0.43117010593414307 0.6250000298023224
vt 0.375 0.625
vt 0.3749999701976776 0.7500000149011612
vt 0.5 1
vt 0.5 0.75
vn -0.5214967155999146 0.8390204349648605 0.1551962800130145
vn -0.5214967155999146 0.8390204349648605 0.1551962800130145
vn -0.5214967155999146 0.8390204349648605 0.1551962800130145
vn -0.5214967155999146 0.8390204349648605 0.1551962800130145
vn -0.1862632763736765 0.414638187559144 0.8907194649788513
vn -0.1862632763736765 0.414638187559144 0.8907194649788513
vn -0.1862632763736765 0.414638187559144 0.8907194649788513
vn -0.1862632763736765 0.414638187559144 0.8907194649788513
vn -0.8427658405130177 0.4926468222564973 0.2168982401610526
vn -0.8427658405130177 0.4926468222564973 0.2168982401610526
vn -0.8427658405130177 0.4926468222564973 0.2168982401610526
vn -0.8427658405130177 0.4926468222564973 0.2168982401610526
vn 0.27458586707928573 -0.9555047548321538 0.10776486019785075
vn 0.27458586707928573 -0.9555047548321538 0.10776486019785075
vn 0.27458586707928573 -0.9555047548321538 0.10776486019785075
vn 0.27458586707928573 -0.9555047548321538 0.10776486019785075
vn 0.9275428628893149 0.36855679655594803 0.06188800542521025
vn 0.9275428628893149 0.36855679655594803 0.06188800542521025
vn 0.9275428628893149 0.36855679655594803 0.06188800542521025
vn 0.9275428628893149 0.36855679655594803 0.06188800542521025
vn 0.4103335138122236 0.45592191770783547 -0.7897858015918768
vn 0.4103335138122236 0.45592191770783547 -0.7897858015918768
vn 0.4103335138122236 0.45592191770783547 -0.7897858015918768
vn 0.4103335138122236 0.45592191770783547 -0.7897858015918768
vn -0.16699441511247862 0.5182344678820099 -0.8387764312498839
vn -0.16699441511247862 0.5182344678820099 -0.8387764312498839
vn -0.16699441511247862 0.5182344678820099 -0.8387764312498839
vn -0.16699441511247862 0.5182344678820099 -0.8387764312498839
vn -0.33449261896193805 -0.9341743812932736 0.12422927672377815
vn -0.33449261896193805 -0.9341743812932736 0.12422927672377815
vn -0.33449261896193805 -0.9341743812932736 0.12422927672377815
vn -0.33449261896193805 -0.9341743812932736 0.12422927672377815
vn 0.3683867084720701 0.47796962827479506 0.7973934207578893
vn 0.3683867084720701 0.47796962827479506 0.7973934207578893
vn 0.3683867084720701 0.47796962827479506 0.7973934207578893
vn 0.3683867084720701 0.47796962827479506 0.7973934207578893
vn 0.8096983535132983 0.5859549715686446 -0.03233183588728787
vn 0.8096983535132983 0.5859549715686446 -0.03233183588728787
vn 0.8096983535132983 0.5859549715686446 -0.03233183588728787
vn 0.13049678586603422 -0.1000097251272696 0.9863917293644561
vn 0.13049678586603422 -0.1000097251272696 0.9863917293644561
vn 0.13049678586603422 -0.1000097251272696 0.9863917293644561
vn 0.13049678586603422 -0.1000097251272696 0.9863917293644561
vn -0.29924299817693784 -0.1121085118572812 -0.9475681028882424
vn -0.29924299817693784 -0.1121085118572812 -0.9475681028882424
vn -0.29924299817693784 -0.1121085118572812 -0.9475681028882424
vn -0.29924299817693784 -0.1121085118572812 -0.9475681028882424
vn 0.2463389660615141 -0.11680377434306509 -0.9621195310869428
vn 0.2463389660615141 -0.11680377434306509 -0.9621195310869428
vn 0.2463389660615141 -0.11680377434306509 -0.9621195310869428
vn 0.2463389660615141 -0.11680377434306509 -0.9621195310869428
vn 0.9899157147899093 -0.12687597992245056 0.063002883511002
vn 0.9899157147899093 -0.12687597992245056 0.063002883511002
vn 0.9899157147899093 -0.12687597992245056 0.063002883511002
vn 0.9899157147899093 -0.12687597992245056 0.063002883511002
vn -0.9818879162951963 -0.1575648996726731 0.10521132175112066
vn -0.9818879162951963 -0.1575648996726731 0.10521132175112066
vn -0.9818879162951963 -0.1575648996726731 0.10521132175112066
vn -0.9818879162951963 -0.1575648996726731 0.10521132175112066
vn -0.16512085308493202 -0.10043693964029807 0.9811460263549945
vn -0.16512085308493202 -0.10043693964029807 0.9811460263549945
vn -0.16512085308493202 -0.10043693964029807 0.9811460263549945
vn -0.16512085308493202 -0.10043693964029807 0.9811460263549945
vn -0.21912576583677587 -0.35052040739978996 0.9105599061801106
vn -0.21912576583677587 -0.35052040739978996 0.9105599061801106
vn -0.21912576583677587 -0.35052040739978996 0.9105599061801106
vn -0.21912576583677587 -0.35052040739978996 0.9105599061801106
vn -0.9375601293758755 -0.33934888642656086 0.07631079272124311
vn -0.9375601293758755 -0.33934888642656086 0.07631079272124311
vn -0.9375601293758755 -0.33934888642656086 0.07631079272124311
vn -0.9375601293758755 -0.33934888642656086 0.07631079272124311
vn 0.9741051086623713 -0.222489191846874 0.040221844676674376
vn 0.9741051086623713 -0.222489191846874 0.040221844676674376
vn 0.9741051086623713 -0.222489191846874 0.040221844676674376
vn 0.9741051086623713 -0.222489191846874 0.040221844676674376
vn 0.3113224103521136 -0.13402105416564053 -0.9408064167791803
vn 0.3113224103521136 -0.13402105416564053 -0.9408064167791803
vn 0.3113224103521136 -0.13402105416564053 -0.9408064167791803
vn 0.3113224103521136 -0.13402105416564053 -0.9408064167791803
vn -0.3224171618181618 -0.15290507295238667 -0.9341665870874138
vn -0.3224171618181618 -0.15290507295238667 -0.9341665870874138
vn -0.3224171618181618 -0.15290507295238667 -0.9341665870874138
vn -0.3224171618181618 -0.15290507295238667 -0.9341665870874138
vn 0.16495058901828058 -0.3272248103626511 0.9304381906745065
vn 0.16495058901828058 -0.3272248103626511 0.9304381906745065
vn 0.16495058901828058 -0.3272248103626511 0.9304381906745065
vn 0.16495058901828058 -0.3272248103626511 0.9304381906745065
vn 0.4757789490411578 0.7229634105151924 0.5009573821249993
vn 0.4757789490411578 0.7229634105151924 0.5009573821249993
vn 0.4757789490411578 0.7229634105151924 0.5009573821249993
f 37/37/37 38/38/38 39/39/39
f 88/88/88 89/89/89 90/90/90
f 1/1/1 2/2/2 3/3/3
f 1/1/1 3/3/3 4/4/4
f 5/5/5 6/6/6 7/7/7
f 5/5/5 7/7/7 8/8/8
f 9/9/9 10/10/10 11/11/11
f 9/9/9 11/11/11 12/12/12
f 13/13/13 14/14/14 15/15/15
f 13/13/13 15/15/15 16/16/16
f 17/17/17 18/18/18 19/19/19
f 17/17/17 19/19/19 20/20/20
f 21/21/21 22/22/22 23/23/23
f 21/21/21 23/23/23 24/24/24
f 25/25/25 26/26/26 27/27/27
f 25/25/25 27/27/27 28/28/28
f 29/29/29 30/30/30 31/31/31
f 29/29/29 31/31/31 32/32/32
f 33/33/33 34/34/34 35/35/35
f 33/33/33 35/35/35 36/36/36
f 40/40/40 41/41/41 42/42/42
f 40/40/40 42/42/42 43/43/43
f 44/44/44 45/45/45 46/46/46
f 44/44/44 46/46/46 47/47/47
f 48/48/48 49/49/49 50/50/50
f 48/48/48 50/50/50 51/51/51
f 52/52/52 53/53/53 54/54/54
f 52/52/52 54/54/54 55/55/55
f 56/56/56 57/57/57 58/58/58
f 56/56/56 58/58/58 59/59/59
f 60/60/60 61/61/61 62/62/62
f 60/60/60 62/62/62 63/63/63
f 64/64/64 65/65/65 66/66/66
f 64/64/64 66/66/66 67/67/67
f 68/68/68 69/69/69 70/70/70
f 68/68/68 70/70/70 71/71/71
f 72/72/72 73/73/73 74/74/74
f 72/72/72 74/74/74 75/75/75
f 76/76/76 77/77/77 78/78/78
f 76/76/76 78/78/78 79/79/79
f 80/80/80 81/81/81 82/82/82
f 80/80/80 82/82/82 83/83/83
f 84/84/84 85/85/85 86/86/86
f 84/84/84 86/86/86 87/87/87
